<svg id="Layer_5" enable-background="new 0 0 64 64" height="512" viewBox="0 0 64 64" width="512" xmlns="http://www.w3.org/2000/svg"><g><path d="m15 29c7.72 0 14-6.28 14-14s-6.28-14-14-14-14 6.28-14 14 6.28 14 14 14zm0-26c6.617 0 12 5.383 12 12s-5.383 12-12 12-12-5.383-12-12 5.383-12 12-12z"/><path d="m15 25v-2c-4.411 0-8-3.589-8-8h-2c0 5.514 4.486 10 10 10z"/><path d="m60.518 41-14.968-21.13c-1.274-1.797-3.348-2.87-5.55-2.87s-4.276 1.073-5.551 2.87l-12.147 17.15c-.101-.006-.2-.02-.302-.02-.664 0-1.316.163-1.939.444-.716-1.687-1.814-3.207-3.262-4.414l-1.391-1.158c-1.35-1.125-3.467-1.125-4.816 0l-1.392 1.158c-2.411 2.01-3.881 4.874-4.145 7.97h-4.055v22h62v-22zm-24.437-19.974c.899-1.268 2.364-2.026 3.919-2.026s3.02.758 3.918 2.026l3.833 5.411c-.151.403-.298.816-.443 1.236-.456 1.325-1.147 3.327-1.811 3.327-.662 0-1.351-2.001-1.807-3.326-.79-2.298-1.607-4.674-3.696-4.674s-2.905 2.377-3.695 4.675c-.455 1.324-1.144 3.325-1.805 3.325s-1.35-2.001-1.806-3.326c-.144-.419-.291-.832-.442-1.234zm-5.246 7.407c.779 2.264 1.604 4.567 3.659 4.567 2.089 0 2.905-2.377 3.695-4.675.456-1.324 1.144-3.325 1.805-3.325.662 0 1.35 2.001 1.806 3.324.79 2.299 1.607 4.676 3.697 4.676 2.059 0 2.884-2.305 3.664-4.571l8.905 12.571h-30.878c-.653-1.499-1.655-2.695-2.863-3.374zm-8.835 10.567c2.168 0 4 2.748 4 6 0 2.735-1.298 5.107-3 5.794v-3.794h-2v3.798c-.827-.335-1.579-1.077-2.125-2.107 1.362-1.942 2.125-4.261 2.125-6.691 0-.903-.108-1.79-.308-2.65.422-.228.859-.35 1.308-.35zm-11.52-4.433 1.391-1.158c.317-.263.718-.409 1.129-.409s.812.146 1.129.409l1.39 1.158c2.212 1.844 3.481 4.553 3.481 7.433s-1.269 5.589-3.48 7.433l-1.391 1.158c-.039.032-.088.044-.129.072v-6.249l2.707-2.707-1.414-1.414-1.293 1.293v-2l-2.293-2.293-1.414 1.414 1.707 1.707v10.249c-.041-.028-.09-.04-.129-.072l-1.39-1.158c-2.212-1.844-3.481-4.553-3.481-7.433s1.269-5.589 3.48-7.433zm27.388 21.75c1.043.355 2.132 1.103 2.132 2.683h2c0-2.8-1.321-5.969-2.251-7.853 2.355.33 6.251 1.398 6.251 4.853v1h2v-1c0-1.128-.282-2.08-.744-2.892 1.346-1.242 3.486-1.756 4.996-1.964-.93 1.884-2.252 5.055-2.252 7.856h2c0-1.565 1.086-2.314 2.127-2.672-.659 1.468-1.019 3.051-1.095 4.672h-14.064c-.076-1.625-.438-3.21-1.1-4.683zm23.132 4.683h-5.978c.107-1.944.724-3.816 1.81-5.445l1.036-1.555h-1.868c-.85 0-2.009.181-3.082.659.829-2.271 1.922-4.116 1.94-4.146l.907-1.513h-1.765c-.229 0-5.16.04-8.012 2.569-2.211-1.944-5.744-2.569-7.988-2.569h-1.764l.906 1.514c.018.03 1.111 1.874 1.94 4.146-1.073-.479-2.232-.66-3.082-.66h-1.868l1.036 1.555c1.086 1.629 1.703 3.501 1.81 5.445h-33.978v-18h2.055c.264 3.096 1.735 5.959 4.146 7.97l1.391 1.158c.413.344.897.58 1.408.722v4.15h-2v2h6v-2h-2v-4.15c.512-.142.996-.378 1.408-.722l1.392-1.158c.253-.211.487-.44.719-.67.904 1.357 2.131 2.269 3.481 2.575v4.125h-2v2h6v-2h-2v-4.12c2.833-.638 5-3.924 5-7.88 0-.692-.073-1.359-.197-2h33.197z"/></g></svg>