<svg height="512pt" viewBox="0 0 512 512" width="512pt" xmlns="http://www.w3.org/2000/svg"><path d="m511.855469 210.078125c-.386719-12.753906-5.621094-24.300781-13.910157-32.875-.175781-.222656-.363281-.4375-.566406-.640625s-.417968-.390625-.640625-.566406c-8.574219-8.289063-20.121093-13.523438-32.875-13.910156-25.796875-.785157-64.15625 1.402343-105.953125 15.207031-.007812-.84375-.015625-1.683594-.03125-2.523438.027344-.464843.011719-.929687-.042968-1.390625-1.082032-34.984375-12.238282-67.46875-30.675782-94.640625-.347656-.722656-.808594-1.390625-1.371094-1.976562-22.882812-32.777344-56.449218-57.5625-95.605468-69.28125-.34375-.132813-.699219-.238281-1.058594-.316407-15.921875-4.65625-32.753906-7.164062-50.160156-7.164062-40.1875 0-78.15625 13.011719-109.804688 37.632812-3.269531 2.542969-3.855468 7.253907-1.3125 10.523438 2.542969 3.269531 7.253906 3.859375 10.523438 1.316406 15.421875-11.996094 32.484375-20.984375 50.621094-26.769531l32.535156 23.636719c3.0625 2.226562 6.4375 3.777344 9.9375 4.695312v56.792969c-3.5.917969-6.875 2.472656-9.9375 4.699219l-40.363282 29.324218c-3.0625 2.222657-5.582031 4.953126-7.539062 8l-54.011719-17.550781c.207031-3.613281-.226562-7.304687-1.394531-10.902343l-12.390625-38.136719c2.636719-3.667969 5.425781-7.238281 8.375-10.695313 2.691406-3.152344 2.316406-7.882812-.832031-10.574218-3.148438-2.6875-7.882813-2.316407-10.574219.832031-3.941406 4.617187-7.617187 9.417969-11.042969 14.375-.269531.324219-.503906.667969-.714844 1.03125-19.074218 28.011719-29.867187 61.027343-30.9414058 95.109375-.0585937.46875-.0742187.945312-.046875 1.417968-.03125 1.402344-.0507812 2.804688-.0507812 4.207032 0 40.546875 13.5625 77.980468 36.375 108.019531.398438.761719.925781 1.445313 1.550781 2.023437 20.667969 26.429688 48.589844 46.921876 80.742188 58.460938.285156.117188.570312.222656.867187.304688 18.105469 6.394531 37.535156 9.949218 57.757813 10.136718-13.804688 41.800782-15.988281 80.160156-15.207031 105.953125.386718 12.757813 5.621093 24.300781 13.910156 32.878907.175781.222656.363281.433593.566406.640624.203125.203126.417969.386719.640625.5625 8.574219 8.289063 20.121094 13.527344 32.875 13.914063 2.988281.089844 6.125.140625 9.394531.140625 31.441406 0 75.457032-4.734375 121.226563-24.699219 3.796875-1.65625 5.53125-6.078125 3.875-9.875s-6.078125-5.53125-9.871094-3.875c-47.980469 20.929688-94.011719 24.226563-124.167969 23.3125-6.414062-.195312-12.386718-2.148437-17.460937-5.386719l69.570312-69.570312 1.171875 1.167969c3.90625 3.910156 9.101563 6.0625 14.625 6.0625 5.527344 0 10.722656-2.152344 14.628906-6.0625l21.089844-21.089844 13.429688 13.429687c1.464844 1.464844 3.382812 2.195313 5.304687 2.195313 1.917969 0 3.835938-.730469 5.300781-2.195313 2.929688-2.929687 2.929688-7.679687 0-10.605468l-13.429687-13.429688 28.003906-28.003906 13.429688 13.429688c1.460937 1.464843 3.382812 2.199218 5.300781 2.199218 1.921875 0 3.839844-.734375 5.304688-2.199218 2.929687-2.929688 2.929687-7.675782 0-10.605469l-13.429688-13.429688 28.003906-28.003906 13.425782 13.429687c1.464843 1.464844 3.386718 2.199219 5.304687 2.199219s3.839844-.734375 5.300781-2.199219c2.929688-2.929687 2.929688-7.675781 0-10.605468l-13.425781-13.429688 21.089844-21.089844c3.90625-3.90625 6.058593-9.101562 6.058593-14.628906 0-5.523437-2.152343-10.71875-6.058593-14.625l-1.171875-1.171875 69.570312-69.570312c3.238282 5.078125 5.195313 11.046875 5.390625 17.460937 1.394531 45.984375-7.105469 133.96875-79.734375 206.597656-15.929687 15.929688-33.566406 29.722657-52.425781 40.992188-3.554687 2.125-4.714844 6.730469-2.589844 10.285156 2.125 3.558594 6.730469 4.71875 10.289063 2.589844 19.914062-11.902344 38.53125-26.460938 55.335937-43.261719 76.613281-76.617187 85.585938-169.257812 84.117188-217.660156zm-168.925781-31.113281c0 1.242187-.019532 2.5-.046876 3.753906-32.195312 12.644531-65.742187 32.550781-96.679687 63.484375-1.777344 1.78125-3.507813 3.570313-5.21875 5.367187l-14.140625-19.464843c2.292969-2.796875 4.109375-6.039063 5.28125-9.640625l15.414062-47.445313c1.171876-3.601562 1.605469-7.292969 1.398438-10.90625l54.011719-17.546875c1.957031 3.042969 4.476562 5.773438 7.539062 8l32.433594 23.5625c0 .277344.007813.558594.007813.835938zm-28.953126-52.933594 8.527344-26.242188c9.894532 17.867188 16.554688 37.761719 19.171875 58.894532l-22.371093-16.253906c-2.550782-1.851563-4.359376-4.402344-5.300782-7.238282-.011718-.03125-.015625-.0625-.027344-.09375-.007812-.03125-.023437-.0625-.035156-.09375-.90625-2.847656-.9375-5.972656.035156-8.972656zm-1.902343-42.691406-12.363281 38.058594c-1.171876 3.597656-1.605469 7.289062-1.394532 10.902343l-54.015625 17.550781c-1.953125-3.046874-4.476562-5.777343-7.539062-8.003906l-40.359375-29.320312c-3.0625-2.226563-6.4375-3.78125-9.9375-4.699219v-56.792969c3.5-.917968 6.875-2.46875 9.9375-4.695312l32.445312-23.574219c33.816406 10.828125 62.894532 32.347656 83.226563 60.574219zm-141.730469-49.136719-22.429688-16.292969c10.125-1.925781 20.503907-2.910156 31.050782-2.910156 10.59375 0 20.949218 1.023438 30.992187 2.949219l-22.371093 16.253906c-2.550782 1.855469-5.535157 2.785156-8.523438 2.808594-.035156 0-.066406-.007813-.097656-.007813s-.0625.003906-.097656.007813c-2.988282-.023438-5.972657-.953125-8.523438-2.808594zm-45.71875 127.183594c.007812-.023438.019531-.042969.027344-.066407.011718-.03125.015625-.0625.027344-.097656.941406-2.835937 2.75-5.382812 5.300781-7.238281l40.363281-29.324219c2.550781-1.851562 5.539062-2.785156 8.527344-2.804687.03125 0 .0625.003906.09375.003906s.0625-.003906.09375-.003906c2.988281.019531 5.976562.953125 8.527344 2.804687l40.363281 29.324219c2.550781 1.855469 4.359375 4.40625 5.304687 7.242187.007813.03125.011719.0625.023438.089844.003906.023438.019531.042969.027344.066406.910156 2.855469.949218 5.992188-.027344 9l-15.417969 47.449219c-.972656 2.996094-2.839844 5.503907-5.246094 7.277344-.027343.019531-.054687.035156-.082031.054687-.027344.019532-.054688.042969-.082031.0625-2.425781 1.742188-5.390625 2.738282-8.539063 2.738282h-49.890625c-3.152343 0-6.113281-.996094-8.542969-2.738282-.027343-.019531-.050781-.042968-.078124-.0625-.027344-.019531-.054688-.035156-.082032-.054687-2.40625-1.773437-4.273437-4.28125-5.246094-7.277344l-15.417968-47.449219c-.976563-3.003906-.9375-6.140624-.027344-8.996093zm-89.21875-61.648438 8.542969 26.292969c.976562 3 .941406 6.125.035156 8.976562-.007813.027344-.023437.058594-.035156.089844-.007813.03125-.015625.0625-.023438.09375-.941406 2.835938-2.75 5.386719-5.304687 7.238282l-22.351563 16.242187c2.585938-20.71875 9.097657-40.726563 19.136719-58.933594zm11.484375 176.273438c-20.035156-27.191407-31.894531-60.757813-31.894531-97.046875 0-.277344.011718-.554688.011718-.835938l32.433594-23.5625c3.0625-2.222656 5.582032-4.957031 7.535156-8l54.015626 17.550782c-.207032 3.609374.226562 7.300781 1.394531 10.902343l15.417969 47.449219c1.171874 3.597656 2.988281 6.839844 5.28125 9.640625l-33.382813 45.945313c-3.371094-1.3125-7.015625-2.042969-10.800781-2.042969zm12.484375 15h27.527344c3.152344 0 6.113281 1 8.542968 2.738281.027344.019531.050782.042969.078126.0625.019531.015625.042968.027344.066406.039062 2.414062 1.777344 4.285156 4.289063 5.261718 7.296876l8.535157 26.261718c-18.921875-8.902344-35.871094-21.3125-50.011719-36.398437zm68.132812 43.640625-12.390624-38.140625c-1.171876-3.597657-2.988282-6.839844-5.28125-9.640625l33.382812-45.945313c3.371094 1.3125 7.015625 2.042969 10.800781 2.042969h49.890625c3.785156 0 7.429688-.730469 10.800782-2.042969l16.007812 22.035157c-22.296875 26.085937-37.605469 53.460937-47.996094 79.921874-1.257812.027344-2.511718.050782-3.757812.050782-17.96875-.003906-35.265625-2.917969-51.457032-8.28125zm154.953126 77.816406c-1.074219 1.074219-2.5 1.667969-4.019532 1.667969-1.519531 0-2.945312-.59375-4.019531-1.667969l-12.949219-12.945312c-2.214844-2.21875-2.214844-5.824219 0-8.042969l21.09375-21.089844 20.988282 20.988281zm31.699218-31.695312-20.988281-20.992188 28-28 20.988281 20.988281zm38.609375-38.609376-20.988281-20.988281 28-28.003906 20.988281 20.988281zm59.699219-59.703124-21.09375 21.09375-20.988281-20.988282 21.09375-21.09375c1.105469-1.105468 2.5625-1.660156 4.019531-1.660156 1.453125 0 2.910156.554688 4.019531 1.660156l12.949219 12.949219c1.070312 1.074219 1.664062 2.503906 1.664062 4.019531 0 1.519532-.589843 2.949219-1.664062 4.019532zm-1.171875-30.421876-1.167969-1.171874c-8.066406-8.0625-21.191406-8.0625-29.253906 0l-21.09375 21.09375-13.429688-13.429688c-2.929687-2.929688-7.675781-2.929688-10.605468 0-2.929688 2.929688-2.929688 7.679688 0 10.605469l13.429687 13.429687-28.003906 28.003906-13.429687-13.429687c-2.925782-2.929687-7.675782-2.929687-10.605469 0-2.925781 2.929687-2.925781 7.675781 0 10.605469l13.429687 13.429687-28 28-13.429687-13.429687c-2.929688-2.929688-7.675781-2.925782-10.605469 0-2.929688 2.929687-2.929688 7.679687 0 10.609375l13.429688 13.429687-21.09375 21.089844c-8.066407 8.066406-8.066407 21.1875 0 29.253906l1.171874 1.171875-69.570312 69.570313c-3.242188-5.078125-5.195312-11.050782-5.390625-17.460938-1.394531-45.984375 7.105469-133.972656 79.734375-206.597656 72.625-72.628906 160.605469-81.128906 206.597656-79.734375 6.410156.195313 12.382813 2.148437 17.460938 5.390625zm0 0"/></svg>